<svg width="24" height="21" viewBox="0 0 24 21" fill="none" xmlns="http://www.w3.org/2000/svg">
<path d="M22.58 5.8501L12.475 0.3971C12.178 0.2371 11.821 0.2371 11.525 0.3971L1.42502 5.8501C0.939018 6.1141 0.758018 6.7201 1.02002 7.2061C1.20002 7.5411 1.54502 7.7311 1.90002 7.7311C2.06002 7.7311 2.22402 7.6931 2.37502 7.6111L3.10902 7.2151L4.69902 18.4651C4.91502 19.6791 6.00902 20.5271 7.35902 20.5271H16.641C17.991 20.5271 19.085 19.6791 19.303 18.4391L20.891 7.2141L21.628 7.6121C22.113 7.8751 22.72 7.6941 22.982 7.2081C23.245 6.7221 23.062 6.1151 22.578 5.8531L22.58 5.8501ZM12 13.9351C10.205 13.9351 8.75002 12.4801 8.75002 10.6851C8.75002 8.8901 10.205 7.4351 12 7.4351C13.795 7.4351 15.25 8.8901 15.25 10.6851C15.25 12.4801 13.795 13.9351 12 13.9351Z" fill="#1C1C1C"/>
</svg>
