<?xml version="1.0" encoding="utf-8"?>
<!-- Svg Vector Icons : http://www.onlinewebfonts.com/icon -->
<!DOCTYPE svg PUBLIC "-//W3C//DTD SVG 1.1//EN" "http://www.w3.org/Graphics/SVG/1.1/DTD/svg11.dtd">
<svg version="1.1" xmlns="http://www.w3.org/2000/svg" xmlns:xlink="http://www.w3.org/1999/xlink" x="0px" y="0px" viewBox="0 0 1000 1000" enable-background="new 0 0 1000 1000" xml:space="preserve">
<metadata> Svg Vector Icons : http://www.onlinewebfonts.com/icon </metadata>
<g><path stroke="black" stroke-width="30" d="M53.5,62.6l893,437.4l-893,437.4l85.1-397.7l535.9-37v-5.4l-535.9-37L53.5,62.6 M53.5,19.1c-9.5,0-19,3.1-26.8,9.2C13.6,38.6,7.5,55.4,11,71.7L96,469.4c3,13.8,12.3,25,24.7,30.6c-12.4,5.6-21.7,16.7-24.7,30.6L11,928.3c-3.5,16.3,2.6,33.1,15.8,43.4c7.8,6.1,17.3,9.2,26.8,9.2c6.5,0,13.1-1.5,19.1-4.4l893-437.4c14.9-7.3,24.4-22.5,24.4-39.1c0-16.6-9.5-31.8-24.4-39.1L72.6,23.6C66.6,20.6,60,19.1,53.5,19.1L53.5,19.1z"/></g>
</svg>